<svg width="80" height="80" viewBox="0 0 80 80" fill="none" xmlns="http://www.w3.org/2000/svg">
<g id="notificationsIcon">
<path id="Vector" d="M13.3335 63.3333V56.6667H20.0002V33.3333C20.0002 28.7222 21.3891 24.625 24.1668 21.0417C26.9446 17.4583 30.5557 15.1111 35.0002 14V11.6667C35.0002 10.2778 35.4863 9.09722 36.4585 8.125C37.4307 7.15278 38.6113 6.66667 40.0002 6.66667C41.389 6.66667 42.5696 7.15278 43.5418 8.125C44.514 9.09722 45.0002 10.2778 45.0002 11.6667V14C49.4446 15.1111 53.0557 17.4583 55.8335 21.0417C58.6113 24.625 60.0002 28.7222 60.0002 33.3333V56.6667H66.6668V63.3333H13.3335ZM40.0002 73.3333C38.1668 73.3333 36.5974 72.6806 35.2918 71.375C33.9863 70.0694 33.3335 68.5 33.3335 66.6667H46.6668C46.6668 68.5 46.014 70.0694 44.7085 71.375C43.4029 72.6806 41.8335 73.3333 40.0002 73.3333ZM26.6668 56.6667H53.3335V33.3333C53.3335 29.6667 52.0279 26.5278 49.4168 23.9167C46.8057 21.3056 43.6668 20 40.0002 20C36.3335 20 33.1946 21.3056 30.5835 23.9167C27.9724 26.5278 26.6668 29.6667 26.6668 33.3333V56.6667Z" fill="white"/>
</g>
</svg>
